<?xml version="1.0" encoding="UTF-8" standalone="no" ?>
<!-- Created with Inkscape (http://www.inkscape.org/) -->
<svg xmlns:dc="http://purl.org/dc/elements/1.1/"
     xmlns:cc="http://creativecommons.org/ns#"
     xmlns:rdf="http://www.w3.org/1999/02/22-rdf-syntax-ns#"
     xmlns:svg="http://www.w3.org/2000/svg"
     xmlns="http://www.w3.org/2000/svg"
     xmlns:sodipodi="http://sodipodi.sourceforge.net/DTD/sodipodi-0.dtd"
     xmlns:inkscape="http://www.inkscape.org/namespaces/inkscape"
     width="300"
     height="672"
     id="svg2"
     version="1.1"
     inkscape:version="0.48.0 r9654"
     sodipodi:docname="Nuovo documento 1">
    <defs id="defs4" />
    <sodipodi:namedview id="base"
                        pagecolor="#ffffff"
                        bordercolor="#666666"
                        borderopacity="1.0"
                        inkscape:pageopacity="0.0"
                        inkscape:pageshadow="2"
                        inkscape:zoom="1.0453111"
                        inkscape:cx="277.47378"
                        inkscape:cy="367.65731"
                        inkscape:document-units="px"
                        inkscape:current-layer="layer1"
                        showgrid="false"
                        inkscape:window-width="1920"
                        inkscape:window-height="1017"
                        inkscape:window-x="-8"
                        inkscape:window-y="-8"
                        inkscape:window-maximized="1" />
    <metadata id="metadata7">
        <rdf:RDF>
            <cc:Work rdf:about="">
                <dc:format>image/svg+xml</dc:format>
                <dc:type rdf:resource="http://purl.org/dc/dcmitype/StillImage" />
                <dc:title></dc:title>
            </cc:Work>
        </rdf:RDF>
    </metadata>
    <g inkscape:label="Livello 1"
       inkscape:groupmode="layer"
       id="layer1"
       transform="translate(0,-380.36218)">
        <path style="fill:#ffdd55;stroke:#ffd42a;stroke-width:1px;stroke-linecap:butt;stroke-linejoin:miter;stroke-opacity:1"
              d="m 24.774241,907.77921 0,122.43749 c 2.39696,10.0991 74.40154,12.9093 122.031249,13.1563 l 0,0.031 c 1.12374,0 2.34129,0 3.5,0 1.16527,0 2.40132,0 3.53125,0 l 0,-0.031 c 47.62991,-0.2478 119.60345,-3.059 122,-13.1563 l 0,-122.43749 -122,0 -7.03125,0 -122.031249,0 z"
              id="path3808"
              inkscape:connector-curvature="0" />
        <path transform="matrix(0.88471117,0,0,0.61578644,-173.63312,725.8334)"
              d="m 508.21428,295.57648 a 141.96428,21.428572 0 1 1 -283.92856,0 141.96428,21.428572 0 1 1 283.92856,0 z"
              sodipodi:ry="21.428572"
              sodipodi:rx="141.96428"
              sodipodi:cy="295.57648"
              sodipodi:cx="366.25"
              id="path3804"
              style="fill:#1a1a1a;fill-opacity:1;stroke:#000000;stroke-width:1;stroke-linecap:round;stroke-linejoin:round;stroke-miterlimit:4;stroke-opacity:1;stroke-dasharray:none"
              sodipodi:type="arc" />
        <path style="fill:#ffdd55;stroke:#ffd42a;stroke-width:1px;stroke-linecap:butt;stroke-linejoin:miter;stroke-opacity:1"
              d="m 78.398761,865.87296 c -22.52217,1.22082 -24.9641,24.92618 -19.625,33.46875 7.34078,12.88303 60.053309,9.05471 91.031249,8.96875 0.33938,0 0.71763,-9.6e-4 1.0625,0 30.97794,0.086 83.65922,3.91428 91,-8.96875 5.3391,-8.54257 2.89717,-32.24793 -19.625,-33.46875 l -71.375,0 -1.0625,0 -71.406249,0 z"
              id="path3842"
              inkscape:connector-curvature="0" />
        <path style="fill:#ffdd55;stroke:#ffd42a;stroke-width:1px;stroke-linecap:butt;stroke-linejoin:miter;stroke-opacity:1"
              d="m 131.94299,781.74796 c 8.52691,53.53406 -19.0967,72.29306 -53.874999,84.1875 0,7.61772 41.207029,7.86594 68.312499,7.84375 2.81601,-0.002 5.64789,0 8.09375,0 27.10547,0.0222 68.3125,-0.22603 68.3125,-7.84375 -34.7783,-11.89444 -62.40191,-30.65344 -53.875,-84.1875 l -18.46875,4.9375 -18.5,-4.9375 z"
              id="path3799"
              inkscape:connector-curvature="0" />
        <path sodipodi:type="arc"
              style="fill:#ffdd55;fill-opacity:1;stroke:#ffd42a;stroke-width:0.94999999;stroke-linecap:butt;stroke-linejoin:miter;stroke-miterlimit:4;stroke-opacity:1;stroke-dasharray:none"
              id="path3797"
              sodipodi:cx="359.19644"
              sodipodi:cy="654.23718"
              sodipodi:rx="29.375"
              sodipodi:ry="29.375"
              d="m 388.57144,654.23718 a 29.375,29.375 0 1 1 -58.75,0 29.375,29.375 0 1 1 58.75,0 z"
              transform="matrix(1.0445593,0,0,1.0445593,-224.8129,75.880448)" />
        <path style="fill:#ffdd55;stroke:#ffd42a;stroke-width:1px;stroke-linecap:butt;stroke-linejoin:miter;stroke-opacity:1"
              d="m 7.892991,405.49796 c 54.45106,77.0513 61.0625,182.58879 61.0625,227.125 l 0,17.15625 c -56.64776,16.59751 8.77983,97.125 55.718749,97.125 l 25.375,0 0.6875,0 25.375,0 c 46.93892,0 112.36651,-80.52749 55.71875,-97.125 l 0,-17.15625 c 0,-44.53621 6.61144,-150.0737 61.0625,-227.125 l -142.15625,0.34375 -0.6875,0 -142.156249,-0.34375 z"
              id="path2998"
              inkscape:connector-curvature="0" />
        <path style="fill:#ffd42a;stroke:#ffcc00;stroke-width:1.01839054px;stroke-linecap:butt;stroke-linejoin:miter;stroke-opacity:1"
              d="m 67.470191,649.23961 c 0,5.05108 165.670309,4.91048 165.670309,0 3.0305,0 3.71612,-16.54885 0,-16.54885 -9.06892,2.18272 -160.625389,1.80287 -165.852159,0 -3.65868,0 -3.3258,16.54885 0.18185,16.54885 z"
              id="path3003"
              inkscape:connector-curvature="0"
              sodipodi:nodetypes="ccccc" />
        <path style="fill:#ffffff;fill-opacity:1;stroke:none"
              d="m 118.61845,636.29952 63.38707,0 0,14.079 -63.38707,0 z"
              id="path3832"
              inkscape:connector-curvature="0" />
        <path sodipodi:type="arc"
              style="fill:#ffd42a;fill-opacity:1;stroke:#ffdd55;stroke-width:1;stroke-linecap:round;stroke-linejoin:round;stroke-miterlimit:4;stroke-opacity:1;stroke-dasharray:none"
              id="path2996"
              sodipodi:cx="366.25"
              sodipodi:cy="295.57648"
              sodipodi:rx="141.96428"
              sodipodi:ry="21.428572"
              d="m 508.21428,295.57648 a 141.96428,21.428572 0 1 1 -283.92856,0 141.96428,21.428572 0 1 1 283.92856,0 z"
              transform="matrix(1.0069504,0,0,0.70086874,-218.40323,197.32113)" />
        <path style="fill:#009246;fill-opacity:1;stroke:none"
              d="m 116.91382,636.23639 c -14.78018,0 -34.237299,-0.36267 -41.731929,-0.88389 l 0,13.63706 c 7.71815,0.75761 27.419859,1.51523 41.795059,1.51523 z"
              id="path3834"
              inkscape:connector-curvature="0"
              sodipodi:nodetypes="ccccc" />
        <path sodipodi:nodetypes="ccccc"
              inkscape:connector-curvature="0"
              id="path3836"
              d="m 183.77329,636.23639 c 14.78018,0 34.2373,-0.36267 41.73193,-0.88389 l 0,13.63706 c -7.71815,0.75761 -27.41986,1.51523 -41.79506,1.51523 z"
              style="fill:#ce2b37;fill-opacity:1;stroke:none" />
        <path style="fill:#ce2b37;fill-opacity:1;stroke:none"
              d="m 73.540391,635.28937 0,13.51079 c -2.9297,-0.13 -5.70062,-0.58554 -8.30187,-1.38896 -4.30317,-1.47751 -2.71654,-13.87532 0,-12.94258 2.55105,0.49525 5.43116,0.65318 8.30187,0.82075 z"
              id="path3838"
              inkscape:connector-curvature="0"
              sodipodi:nodetypes="ccccc" />
        <path sodipodi:nodetypes="ccccc"
              inkscape:connector-curvature="0"
              id="path3840"
              d="m 227.10918,635.28937 0,13.51079 c 2.89582,-0.13 5.63469,-0.58554 8.20586,-1.38896 4.2534,-1.47751 2.68512,-13.87532 0,-12.94258 -2.52155,0.49525 -5.36835,0.65318 -8.20586,0.82075 z"
              style="fill:#009246;fill-opacity:1;stroke:none" />
        <path transform="matrix(1.0069504,0,0,0.70086874,-218.40323,197.32113)"
              d="m 508.21428,295.57648 a 141.96428,21.428572 0 1 1 -283.92856,0 141.96428,21.428572 0 1 1 283.92856,0 z"
              sodipodi:ry="21.428572"
              sodipodi:rx="141.96428"
              sodipodi:cy="295.57648"
              sodipodi:cx="366.25"
              id="path3849"
              style="fill:none;stroke:#ffcc00;stroke-width:3.57107425;stroke-linecap:round;stroke-linejoin:round;stroke-miterlimit:4;stroke-opacity:1;stroke-dasharray:none"
              sodipodi:type="arc" />
    </g>
</svg>
